# xmcd CD database file
#
# Track frame offsets:
#	150
#	19803
#	49424
#	68243
#	86525
#	103378
#	125059
#	149131
#	170594
#	187557
#
# Disc length: 2840 seconds
#
# Revision: 0
# Processed by: cddbd v1.5.2PL0 Copyright (c) Steve Scherf et al.
# Submitted via: CDex 1.51
#
DISCID=940b160a
DTITLE=Johnny Cruz - Back To The Classics - Johnny Cruz and The Dream Team Band
DYEAR=2006
DGENRE=Salsa
TTITLE0=El Swing (Canta: Adalbeto Santiago) 
TTITLE1=Tu No Sabes Querrer (Canta: Ray Sepulveda) 
TTITLE2=Hepocrecia (Canta: Frankie Vazquez) 
TTITLE3=La Boda De Ella (Canta: Ray Banona) 
TTITLE4=Ahora Si (Canta: Jose "Cheo" Medina) 
TTITLE5=Puerto Rico (Canta: Frankie Vasquez) 
TTITLE6=Nada De Ti (Canta: Ray Sepulveda) 
TTITLE7=Alejate (Canta: Ray Banona) 
TTITLE8=Pa Bravo Yo (Canta: Jose "Cheo" Medina) 
TTITLE9=Un Verano En Nueva York (Canta: Adalberto Santiago) 
EXTD=YEAR: 2006
EXTT0=
EXTT1=
EXTT2=
EXTT3=
EXTT4=
EXTT5=
EXTT6=
EXTT7=
EXTT8=
EXTT9=
PLAYORDER=
